HIERARCHY
ROOT Hips
{
  OFFSET 5.84602e-005 68.8428 3.50346
  CHANNELS 6 Xposition Yposition Zposition Zrotation Xrotation Yrotation
  JOINT Spine
  {
    OFFSET 0 8.597 -4.6522
    CHANNELS 3 Zrotation Xrotation Yrotation
    JOINT Spine1
    {
      OFFSET 0 7.8454 0.4098
      CHANNELS 3 Zrotation Xrotation Yrotation
      JOINT Spine2
      {
        OFFSET 0 9.7078 -2.1609
        CHANNELS 3 Zrotation Xrotation Yrotation
        JOINT Neck
        {
          OFFSET 0 21.8761 -0.4549
          CHANNELS 3 Zrotation Xrotation Yrotation
          JOINT Head
          {
            OFFSET 0 12.3537 3.3602
            CHANNELS 3 Zrotation Xrotation Yrotation
            End Site
            {
              OFFSET 0.0001 18.9506 0.5657
            }
          }
        }
        JOINT LeftShoulder
        {
          OFFSET 2.2086 21.1115 7.2329
          CHANNELS 3 Zrotation Xrotation Yrotation
          JOINT LeftArm
          {
            OFFSET 13.1193 3.0282 -4.8998
            CHANNELS 3 Zrotation Xrotation Yrotation
            JOINT LeftForeArm
            {
              OFFSET 27.4081 -0.0973053 -0.2375
              CHANNELS 3 Zrotation Xrotation Yrotation
              JOINT LeftHand
              {
                OFFSET 22.8641 0.0662994 -0.1369
                CHANNELS 3 Zrotation Xrotation Yrotation
                JOINT LeftHandIndex1
                {
                  OFFSET 8.8614 0.775009 2.4612
                  CHANNELS 3 Zrotation Xrotation Yrotation
                  JOINT LeftHandIndex2
                  {
                    OFFSET 3.3146 -0.808304 0.5841
                    CHANNELS 3 Zrotation Xrotation Yrotation
                    JOINT LeftHandIndex3
                    {
                      OFFSET 2.2628 -0.552002 0.3989
                      CHANNELS 3 Zrotation Xrotation Yrotation
                      End Site
                      {
                        OFFSET 1.6102 -0.4807 0.2612
                      }
                    }
                  }
                }
                JOINT LeftHandMiddle1
                {
                  OFFSET 8.9937 0.895004 0.2143
                  CHANNELS 3 Zrotation Xrotation Yrotation
                  JOINT LeftHandMiddle2
                  {
                    OFFSET 4.0984 0.0113983 -0.0242
                    CHANNELS 3 Zrotation Xrotation Yrotation
                    JOINT LeftHandMiddle3
                    {
                      OFFSET 2.2716 0.00689697 -0.0138001
                      CHANNELS 3 Zrotation Xrotation Yrotation
                      End Site
                      {
                        OFFSET 2.0404 -0.1441 0.0027
                      }
                    }
                  }
                }
                JOINT LeftHandRing1
                {
                  OFFSET 8.5234 0.597198 -2.0164
                  CHANNELS 3 Zrotation Xrotation Yrotation
                  JOINT LeftHandRing2
                  {
                    OFFSET 3.7188 -0.188293 -0.2328
                    CHANNELS 3 Zrotation Xrotation Yrotation
                    JOINT LeftHandRing3
                    {
                      OFFSET 2.1191 -0.106598 -0.1332
                      CHANNELS 3 Zrotation Xrotation Yrotation
                      End Site
                      {
                        OFFSET 1.8737 -0.2304 -0.0886
                      }
                    }
                  }
                }
                JOINT LeftHandPinky1
                {
                  OFFSET 7.9094 -0.601089 -3.4825
                  CHANNELS 3 Zrotation Xrotation Yrotation
                  JOINT LeftHandPinky2
                  {
                    OFFSET 2.2874 -0.477005 -0.6314
                    CHANNELS 3 Zrotation Xrotation Yrotation
                    JOINT LeftHandPinky3
                    {
                      OFFSET 1.6774 -0.349396 -0.4633
                      CHANNELS 3 Zrotation Xrotation Yrotation
                      End Site
                      {
                        OFFSET 1.4888 -0.4091 -0.3416
                      }
                    }
                  }
                }
                JOINT LeftHandThumb1
                {
                  OFFSET 1.833 -1.3875 1.3896
                  CHANNELS 3 Zrotation Xrotation Yrotation
                  JOINT LeftHandThumb2
                  {
                    OFFSET 3.4129 -1.121 2.5732
                    CHANNELS 3 Zrotation Xrotation Yrotation
                    JOINT LeftHandThumb3
                    {
                      OFFSET 2.2474 -0.804199 1.6192
                      CHANNELS 3 Zrotation Xrotation Yrotation
                      End Site
                      {
                        OFFSET 1.6527 -0.5689 1.1317
                      }
                    }
                  }
                }
              }
            }
          }
        }
        JOINT RightShoulder
        {
          OFFSET -2.2086 21.1115 7.2329
          CHANNELS 3 Zrotation Xrotation Yrotation
          JOINT RightArm
          {
            OFFSET -13.1216 3.0287 -4.9007
            CHANNELS 3 Zrotation Xrotation Yrotation
            JOINT RightForeArm
            {
              OFFSET -27.4081 -0.0973053 -0.2375
              CHANNELS 3 Zrotation Xrotation Yrotation
              JOINT RightHand
              {
                OFFSET -22.8641 0.0664063 -0.1369
                CHANNELS 3 Zrotation Xrotation Yrotation
                JOINT RightHandIndex1
                {
                  OFFSET -8.8614 0.774994 2.4612
                  CHANNELS 3 Zrotation Xrotation Yrotation
                  JOINT RightHandIndex2
                  {
                    OFFSET -3.3146 -0.808304 0.5841
                    CHANNELS 3 Zrotation Xrotation Yrotation
                    JOINT RightHandIndex3
                    {
                      OFFSET -2.2628 -0.552002 0.3989
                      CHANNELS 3 Zrotation Xrotation Yrotation
                      End Site
                      {
                        OFFSET -1.6102 -0.4807 0.2612
                      }
                    }
                  }
                }
                JOINT RightHandMiddle1
                {
                  OFFSET -8.9937 0.894989 0.2143
                  CHANNELS 3 Zrotation Xrotation Yrotation
                  JOINT RightHandMiddle2
                  {
                    OFFSET -4.0984 0.0113983 -0.0242
                    CHANNELS 3 Zrotation Xrotation Yrotation
                    JOINT RightHandMiddle3
                    {
                      OFFSET -2.2716 0.00691223 -0.0138001
                      CHANNELS 3 Zrotation Xrotation Yrotation
                      End Site
                      {
                        OFFSET -2.0404 -0.1441 0.0027
                      }
                    }
                  }
                }
                JOINT RightHandRing1
                {
                  OFFSET -8.5234 0.597198 -2.0164
                  CHANNELS 3 Zrotation Xrotation Yrotation
                  JOINT RightHandRing2
                  {
                    OFFSET -3.7188 -0.188309 -0.2328
                    CHANNELS 3 Zrotation Xrotation Yrotation
                    JOINT RightHandRing3
                    {
                      OFFSET -2.1191 -0.106598 -0.1332
                      CHANNELS 3 Zrotation Xrotation Yrotation
                      End Site
                      {
                        OFFSET -1.8737 -0.2304 -0.0886
                      }
                    }
                  }
                }
                JOINT RightHandPinky1
                {
                  OFFSET -7.9094 -0.601105 -3.4825
                  CHANNELS 3 Zrotation Xrotation Yrotation
                  JOINT RightHandPinky2
                  {
                    OFFSET -2.2874 -0.477005 -0.6314
                    CHANNELS 3 Zrotation Xrotation Yrotation
                    JOINT RightHandPinky3
                    {
                      OFFSET -1.6774 -0.349396 -0.4633
                      CHANNELS 3 Zrotation Xrotation Yrotation
                      End Site
                      {
                        OFFSET -1.4888 -0.4091 -0.3416
                      }
                    }
                  }
                }
                JOINT RightHandThumb1
                {
                  OFFSET -1.833 -1.38751 1.3896
                  CHANNELS 3 Zrotation Xrotation Yrotation
                  JOINT RightHandThumb2
                  {
                    OFFSET -3.41299 -1.12099 2.5732
                    CHANNELS 3 Zrotation Xrotation Yrotation
                    JOINT RightHandThumb3
                    {
                      OFFSET -2.24741 -0.804108 1.6192
                      CHANNELS 3 Zrotation Xrotation Yrotation
                      End Site
                      {
                        OFFSET -1.6527 -0.5689 1.1317
                      }
                    }
                  }
                }
              }
            }
          }
        }
      }
    }
  }
  JOINT RightUpLeg
  {
    OFFSET -9.1966 3.8861 -0.7581
    CHANNELS 3 Zrotation Xrotation Yrotation
    JOINT RightLeg
    {
      OFFSET -0.7359 -41.0265 0
      CHANNELS 3 Zrotation Xrotation Yrotation
      JOINT RightFoot
      {
        OFFSET 0 -40.2855 0
        CHANNELS 3 Zrotation Xrotation Yrotation
        JOINT RightToeBase
        {
          OFFSET 0 -5.6122 11.7359
          CHANNELS 3 Zrotation Xrotation Yrotation
          End Site
          {
            OFFSET 0 0 7.8731
          }
        }
      }
    }
  }
  JOINT LeftUpLeg
  {
    OFFSET 9.1965 3.8864 -0.7581
    CHANNELS 3 Zrotation Xrotation Yrotation
    JOINT LeftLeg
    {
      OFFSET 0.7359 -41.0268 0
      CHANNELS 3 Zrotation Xrotation Yrotation
      JOINT LeftFoot
      {
        OFFSET 0 -40.2855 0
        CHANNELS 3 Zrotation Xrotation Yrotation
        JOINT LeftToeBase
        {
          OFFSET 0 -5.6122 11.7359
          CHANNELS 3 Zrotation Xrotation Yrotation
          End Site
          {
            OFFSET 0 0 7.8731
          }
        }
      }
    }
  }
}
MOTION
Frames:	6
Frame Time:	0.0333333
1.62995 27.3219 6.94857 0 21.6509 -0 0.215133 3.55267 -0.277334 0.448836 7.10447 -0.569706 0.448836 7.10446 -0.569707 -7.64663 -11.0934 -17.4125 1.64343e-006 -16.7035 5.17358e-006 -15.1067 13.351 -32.2501 -16.8159 -5.47959 -6.04132 -24.7578 21.9696 -66.9084 28.4765 -23.204 -1.5654 3.18055e-015 3.18055e-015 6.36111e-015 -1.09305e-006 1.43368e-006 1.79703e-006 -3.6435e-007 4.77892e-007 5.99011e-007 3.18055e-015 3.18055e-015 6.36111e-015 -0.0146075 -9.0236e-005 -8.56181e-007 2.13834e-006 4.10907e-006 -7.2219e-007 3.18055e-015 3.18055e-015 6.36111e-015 -0.0187576 -0.00118014 6.29708e-005 -3.6436e-007 4.77793e-007 5.99093e-007 3.18055e-015 3.18055e-015 6.36111e-015 -0.0122511 -0.00324909 0.000675616 5.76277e-007 2.15805e-006 -7.48945e-007 3.18055e-015 3.18055e-015 6.36111e-015 -1.09305e-006 1.43368e-006 1.79703e-006 -3.6435e-007 4.77892e-007 5.99011e-007 0.943009 -11.1513 5.87433 10.72 21.397 35.7878 -0.230037 -0.0939603 26.7078 -4.71548 -15.3608 2.9918 -3.50693e-006 3.1549e-007 3.3573e-008 8.27582e-007 1.33968e-006 -5.9722e-007 -4.33451e-006 -1.02419e-006 6.30793e-007 -3.50693e-006 3.1549e-007 3.3573e-008 0.0149387 -8.99017e-005 4.5022e-006 -4.33429e-006 -1.0241e-006 6.3093e-007 -3.50693e-006 3.1549e-007 3.3573e-008 0.0190428 -0.00119131 -5.98056e-005 -4.33422e-006 -1.0241e-006 6.31007e-007 -3.50693e-006 3.1549e-007 3.3573e-008 0.0121889 -0.00322234 -0.000668702 -4.3343e-006 -1.02419e-006 6.31013e-007 -3.50693e-006 3.1549e-007 3.3573e-008 8.27582e-007 1.33968e-006 -5.9722e-007 -4.33451e-006 -1.02419e-006 6.30793e-007 -7.32837 -14.9354 -15.4511 -147.931 87.57 145.806 19.5983 44.7902 -25.1329 2.622e-006 2.23518e-007 -1.79864e-006 7.29317 -14.9287 15.4035 148.636 87.613 -146.5 -19.5116 44.611 25.0468 3.10561e-006 3.23459e-006 -1.48096e-007 
1.62996 27.3173 6.68097 0 22.3036 -0 0.217183 3.28149 -0.275619 0.451319 6.56192 -0.565112 0.451319 6.56191 -0.565112 -7.57102 -10.8127 -17.2949 2.07824e-006 -15.9447 3.22564e-006 -15.3977 13.5376 -32.2827 -16.8159 -5.4796 -6.04132 -24.6725 21.7703 -66.4644 27.9407 -23.3646 -1.52237 -3.64421e-007 4.77513e-007 5.99245e-007 -9.54166e-015 -9.54166e-015 1.59028e-014 -3.64421e-007 4.77513e-007 5.99245e-007 -3.64421e-007 4.77513e-007 5.99245e-007 -0.0145926 -8.298e-005 -2.43624e-007 -3.64433e-007 4.77437e-007 5.99306e-007 -3.64421e-007 4.77513e-007 5.99245e-007 -0.0187801 -0.00117966 5.87374e-005 -3.6443e-007 4.77414e-007 5.99327e-007 -3.64421e-007 4.77513e-007 5.99245e-007 -0.0122646 -0.00324061 0.000669438 -3.64412e-007 4.77449e-007 5.99306e-007 -3.64421e-007 4.77513e-007 5.99245e-007 -9.54166e-015 -9.54166e-015 1.59028e-014 -3.64421e-007 4.77513e-007 5.99245e-007 1.38237 -10.97 6.44409 10.6268 21.3287 35.3829 -0.267434 -0.11241 26.3244 -4.18491 -15.0734 3.14592 -2.67927e-006 1.65515e-006 -5.63618e-007 -8.27575e-007 -1.33964e-006 5.97323e-007 8.27575e-007 1.33964e-006 -5.97323e-007 -2.67927e-006 1.65515e-006 -5.63618e-007 0.0149884 -9.14474e-005 3.66786e-006 -2.66811e-006 7.08263e-007 -2.57825e-006 -2.67927e-006 1.65515e-006 -5.63618e-007 0.0190306 -0.00119344 -5.9088e-005 8.27521e-007 1.33954e-006 -5.97554e-007 -2.67927e-006 1.65515e-006 -5.63618e-007 0.0122802 -0.00325381 -0.000680073 8.2752e-007 1.33959e-006 -5.97488e-007 -2.67927e-006 1.65515e-006 -5.63618e-007 -8.27575e-007 -1.33964e-006 5.97323e-007 8.27575e-007 1.33964e-006 -5.97323e-007 -7.39972 -15.89 -15.613 -151.271 87.2522 149.127 19.6108 44.7903 -25.1491 -1.9985e-007 -1.90659e-007 -6.94067e-007 7.36455 -15.8833 15.5657 151.947 87.2931 -149.793 -19.524 44.611 25.0629 2.87256e-008 -2.72381e-008 9.91014e-008 
1.62996 27.3137 6.4133 0 22.9562 -0 0.219233 3.01026 -0.273878 0.453838 6.01944 -0.560467 0.453839 6.01945 -0.560467 -7.49595 -10.5314 -17.1777 -7.61318e-007 -15.1863 4.57386e-006 -15.6888 13.7244 -32.3144 -16.8159 -5.47959 -6.04132 -24.5857 21.5716 -66.0207 27.4045 -23.5254 -1.48094 3.64482e-007 -4.77124e-007 -5.99492e-007 3.64482e-007 -4.77124e-007 -5.99492e-007 1.09345e-006 -1.43137e-006 -1.79848e-006 3.64482e-007 -4.77124e-007 -5.99492e-007 -0.0145552 -8.39233e-005 -3.80577e-006 1.09348e-006 -1.43114e-006 -1.79866e-006 3.64482e-007 -4.77124e-007 -5.99492e-007 -0.0187314 -0.00117353 5.94848e-005 1.09347e-006 -1.43108e-006 -1.79872e-006 3.64482e-007 -4.77124e-007 -5.99492e-007 -0.012274 -0.00324699 0.000669405 1.09342e-006 -1.43118e-006 -1.79866e-006 3.64482e-007 -4.77124e-007 -5.99492e-007 3.64482e-007 -4.77124e-007 -5.99492e-007 1.09345e-006 -1.43137e-006 -1.79848e-006 1.81955 -10.7844 7.01198 10.5332 21.261 34.9782 -0.304932 -0.13056 25.9409 -3.65594 -14.7847 3.29702 -1.05934e-030 -9.54166e-015 -6.36111e-015 1.28797e-006 -1.79982e-006 3.84023e-006 -6.36111e-015 6.36111e-015 3.18055e-015 -1.05934e-030 -9.54166e-015 -6.36111e-015 0.0149708 -9.03031e-005 3.35535e-006 -1.05934e-030 -9.54166e-015 -6.36111e-015 -1.05934e-030 -9.54166e-015 -6.36111e-015 0.0189432 -0.00119136 -6.03092e-005 -3.18055e-015 3.18055e-015 -3.18055e-015 -1.05934e-030 -9.54166e-015 -6.36111e-015 0.0122157 -0.00323037 -0.000672876 5.29669e-031 9.54166e-015 -3.18055e-015 -1.05934e-030 -9.54166e-015 -6.36111e-015 1.28797e-006 -1.79982e-006 3.84023e-006 -6.36111e-015 6.36111e-015 3.18055e-015 -7.47372 -16.8448 -15.7769 -153.92 86.9264 151.757 19.6232 44.7902 -25.1653 2.85074e-008 2.72371e-008 9.91643e-008 7.43859 -16.8377 15.7298 154.556 86.9659 -152.383 -19.5364 44.611 25.0791 -2.38415e-007 -5.70528e-007 1.97423e-007 
1.62996 27.3112 6.1456 0 23.6087 -0 0.221284 2.73907 -0.272104 0.456391 5.47705 -0.555765 0.456391 5.47705 -0.555766 -7.42152 -10.2492 -17.0608 2.45066e-007 -14.4284 1.63225e-006 -15.9801 13.9115 -32.3452 -16.8159 -5.47959 -6.04131 -24.4973 21.3737 -65.5774 26.8678 -23.6866 -1.44113 0 0 -3.18055e-015 3.4801e-007 1.44557e-006 -3.10641e-006 -3.18055e-015 -3.18055e-015 3.18055e-015 0 0 -3.18055e-015 -0.0146137 -9.02524e-005 -1.51513e-006 3.18055e-015 9.54166e-015 3.18055e-015 0 0 -3.18055e-015 -0.0187725 -0.00117271 6.17864e-005 2.11868e-030 -9.54166e-015 1.27222e-014 0 0 -3.18055e-015 -0.0123103 -0.00325602 0.00067561 3.18055e-015 6.36111e-015 -0 0 0 -3.18055e-015 3.4801e-007 1.44557e-006 -3.10641e-006 -3.18055e-015 -3.18055e-015 3.18055e-015 2.25448 -10.5945 7.57793 10.4391 21.1939 34.5734 -0.342579 -0.148486 25.5574 -3.12853 -14.4947 3.44515 -3.49543e-006 -6.31862e-007 -1.97975e-006 -3.18055e-015 6.36111e-015 3.18055e-015 -9.54166e-015 0 -0 -3.49543e-006 -6.31862e-007 -1.97975e-006 0.0149892 -9.20417e-005 1.18839e-007 3.53113e-030 1.59028e-014 -1.27222e-014 -3.49543e-006 -6.31862e-007 -1.97975e-006 0.018924 -0.00118496 -5.96977e-005 1.27222e-014 -6.36111e-015 -3.18055e-015 -3.49543e-006 -6.31862e-007 -1.97975e-006 0.0122637 -0.00324674 -0.000676584 -6.36111e-015 6.36111e-015 -0 -3.49543e-006 -6.31862e-007 -1.97975e-006 -3.18055e-015 6.36111e-015 3.18055e-015 -9.54166e-015 0 -0 -7.55063 -17.7982 -15.9429 -156.051 86.5961 153.871 19.6358 44.7903 -25.1817 -1.99254e-007 -1.90658e-007 -6.94234e-007 7.51557 -17.7906 15.896 156.647 86.6345 -154.456 -19.5488 44.6109 25.0953 -2.5776e-007 2.45152e-007 -8.92127e-007 
1.62996 27.3097 5.87788 0 24.261 -0 0.22334 2.46793 -0.270308 0.458986 4.93487 -0.55102 0.458986 4.93488 -0.55102 -7.34767 -9.96707 -16.9445 4.55934e-006 -13.6711 -1.39165e-007 -16.2714 14.0985 -32.375 -16.8159 -5.47959 -6.04132 -24.4075 21.1763 -65.1344 26.3307 -23.8481 -1.4029 5.29669e-031 3.18055e-015 -9.54166e-015 -3.6457e-007 4.76313e-007 6.00031e-007 -7.29139e-007 9.52626e-007 1.20006e-006 5.29669e-031 3.18055e-015 -9.54166e-015 -0.0146223 -9.18204e-005 3.09675e-006 -7.29162e-007 9.52473e-007 1.20018e-006 5.29669e-031 3.18055e-015 -9.54166e-015 -0.0187627 -0.00117167 5.67944e-005 -7.29158e-007 9.52428e-007 1.20023e-006 5.29669e-031 3.18055e-015 -9.54166e-015 -0.0122672 -0.0032456 0.000676841 -7.2912e-007 9.52497e-007 1.20019e-006 5.29669e-031 3.18055e-015 -9.54166e-015 -3.6457e-007 4.76313e-007 6.00031e-007 -7.29139e-007 9.52626e-007 1.20006e-006 2.68709 -10.4006 8.14192 10.3446 21.1275 34.1689 -0.38033 -0.166163 25.174 -2.60268 -14.2034 3.5903 6.36111e-015 3.18055e-015 -0 9.54166e-015 -6.36111e-015 -3.18055e-015 3.18055e-015 0 -0 6.36111e-015 3.18055e-015 -0 0.0149943 -8.94081e-005 4.74786e-007 -3.49269e-006 -6.32533e-007 -1.97896e-006 6.36111e-015 3.18055e-015 -0 0.0189614 -0.0011888 -5.91602e-005 -1.27222e-014 6.36111e-015 -3.18055e-015 6.36111e-015 3.18055e-015 -0 0.0122547 -0.00324907 -0.0006825 -1.59028e-014 3.18055e-015 -6.36111e-015 6.36111e-015 3.18055e-015 -0 9.54166e-015 -6.36111e-015 -3.18055e-015 3.18055e-015 0 -0 -7.63038 -18.7509 -16.1111 -157.806 86.2619 155.607 19.6483 44.7902 -25.198 2.8422e-008 2.72362e-008 9.91884e-008 7.59533 -18.7435 16.0644 158.367 86.2988 -156.157 -19.5613 44.6108 25.1116 1.60032e-006 1.96639e-006 -4.1595e-007 
1.62997 27.3092 5.61016 0 24.9131 -0 0.2254 2.19699 -0.268482 0.461618 4.39286 -0.546221 0.461618 4.39287 -0.546221 -7.27439 -9.68544 -16.8285 -1.39059e-006 -12.9143 4.63524e-007 -16.5628 14.2857 -32.4038 -16.8159 -5.47958 -6.04133 -24.3162 20.9797 -64.6918 25.7932 -24.0099 -1.36633 -3.64597e-007 4.75891e-007 6.00322e-007 -7.29194e-007 9.51782e-007 1.20064e-006 -3.64597e-007 4.75891e-007 6.00322e-007 -3.64597e-007 4.75891e-007 6.00322e-007 -0.0145914 -9.03397e-005 2.82067e-006 -1.32596e-006 -1.22317e-006 1.92638e-006 -3.64597e-007 4.75891e-007 6.00322e-007 -0.0187602 -0.00117186 5.84273e-005 -3.64606e-007 4.75792e-007 6.00404e-007 -3.64597e-007 4.75891e-007 6.00322e-007 -0.0122539 -0.00324096 0.000678381 -3.64587e-007 4.75826e-007 6.00384e-007 -3.64597e-007 4.75891e-007 6.00322e-007 -7.29194e-007 9.51782e-007 1.20064e-006 -3.64597e-007 4.75891e-007 6.00322e-007 3.11732 -10.2026 8.70385 10.2496 21.0617 33.7644 -0.418195 -0.183573 24.7906 -2.07842 -13.911 3.73246 -2.40548e-006 -1.78982e-007 -1.29793e-006 -3.18055e-015 3.18055e-015 -6.36111e-015 2.40548e-006 1.78982e-007 1.29793e-006 -2.40548e-006 -1.78982e-007 -1.29793e-006 0.0150202 -9.26793e-005 4.65466e-007 -2.40752e-006 -1.79139e-007 -1.29791e-006 -2.40548e-006 -1.78982e-007 -1.29793e-006 0.019012 -0.00119196 -5.72876e-005 -3.18055e-015 -3.18055e-015 -3.18055e-015 -2.40548e-006 -1.78982e-007 -1.29793e-006 0.0122723 -0.00324831 -0.00067458 -2.40718e-006 -1.78696e-007 -1.29775e-006 -2.40548e-006 -1.78982e-007 -1.29793e-006 -3.18055e-015 3.18055e-015 -6.36111e-015 2.40548e-006 1.78982e-007 1.29793e-006 -7.71308 -19.703 -16.2815 -159.273 85.9246 157.055 19.6609 44.7901 -25.2144 1.98653e-007 1.90647e-007 6.94405e-007 7.67797 -19.6964 16.235 159.805 85.9597 -157.576 -19.5739 44.6108 25.128 2.56981e-007 -2.4515e-007 8.92347e-007 
